<svg width="14" height="14" viewBox="0 0 14 14" fill="none" xmlns="http://www.w3.org/2000/svg">
<path d="M13.9423 5.35062C13.771 4.6507 13.1804 4.08067 12.4728 3.93254C12.4144 3.92029 12.3562 3.92244 12.2977 3.91544C11.7713 1.63304 9.76471 0 7.38948 0H6.61165C4.23686 0 2.22997 1.63337 1.7033 3.91552C1.33113 3.96269 0.975552 4.10503 0.685198 4.35181C0.249922 4.72212 0 5.26214 0 5.83333C0 6.44135 0.293198 7.01557 0.777838 7.38092V10.8889C0.777838 11.4622 1.09295 11.9583 1.55568 12.2281V12.8333C1.55568 13.4767 2.07904 14 2.72245 14C3.36587 14 3.88923 13.4767 3.88923 12.8333V12.4444H10.112V12.8333C10.112 13.4767 10.6353 14 11.2787 14C11.9222 14 12.4455 13.4767 12.4455 12.8333V12.2281C12.9083 11.9583 13.2234 11.4622 13.2234 10.8889V7.38132C13.8451 6.91494 14.1318 6.12653 13.9423 5.35062ZM6.6111 0.777766H7.38886C9.35823 0.777766 11.0258 2.10561 11.5118 3.97567C11.2666 4.04713 11.0332 4.1588 10.8304 4.32334C10.3731 4.69474 10.1111 5.24504 10.1111 5.83333V7.77777H3.8889V5.91649C3.8889 5.00759 3.2993 4.21549 2.48861 3.97352C2.97496 2.10489 4.64264 0.777766 6.6111 0.777766ZM10.8889 8.94443C10.8889 9.15899 10.7146 9.33333 10.5 9.33333H3.5C3.28544 9.33333 3.1111 9.15903 3.1111 8.94443C3.1111 8.72987 3.28541 8.55553 3.5 8.55553H10.5C10.7146 8.55557 10.8889 8.72987 10.8889 8.94443ZM3.1111 12.8333C3.1111 13.0479 2.93679 13.2222 2.7222 13.2222C2.50764 13.2222 2.33333 13.0479 2.33333 12.8333V12.4444H3.1111V12.8333ZM11.6667 12.8333C11.6667 13.0479 11.4924 13.2222 11.2778 13.2222C11.0632 13.2222 10.8889 13.0479 10.8889 12.8333V12.4444H11.6667V12.8333ZM12.6377 6.83707C12.5181 6.90656 12.4444 7.03456 12.4444 7.17318V10.8889C12.4444 11.3177 12.0954 11.6667 11.6667 11.6667H2.33333C1.90458 11.6667 1.55557 11.3177 1.55557 10.8889V7.17318C1.55557 7.03493 1.48189 6.90696 1.36227 6.83707C0.996151 6.62404 0.777766 6.24881 0.777766 5.83333C0.777766 5.49077 0.927792 5.16644 1.18905 4.9443C1.45414 4.71869 1.79404 4.62605 2.14306 4.683C2.69485 4.77261 3.1111 5.30316 3.1111 5.91649V7.84941C2.65942 8.01048 2.33333 8.4381 2.33333 8.94443C2.33333 9.58778 2.85666 10.1111 3.5 10.1111H10.5C11.1433 10.1111 11.6667 9.58778 11.6667 8.94443C11.6667 8.4381 11.3406 8.01048 10.8889 7.84941V5.83333C10.8889 5.48012 11.0461 5.1501 11.3207 4.9272C11.5991 4.70123 11.9512 4.61807 12.3123 4.69365C12.7331 4.78177 13.084 5.12014 13.1854 5.53521C13.3134 6.05817 13.0984 6.56895 12.6377 6.83707Z" fill="#686868"/>
</svg>
