<svg width="12" height="14" viewBox="0 0 12 14" fill="none" xmlns="http://www.w3.org/2000/svg">
<path d="M10.5273 13.0977H1.23047C0.551988 13.0977 0 12.5457 0 11.8672V1.23047C0 0.551988 0.551988 0 1.23047 0H10.5273C11.2058 0 11.7578 0.551988 11.7578 1.23047V11.8672C11.7578 12.5457 11.2058 13.0977 10.5273 13.0977ZM1.23047 0.820312C1.00431 0.820312 0.820312 1.00431 0.820312 1.23047V11.8672C0.820312 12.0933 1.00431 12.2773 1.23047 12.2773H10.5273C10.7535 12.2773 10.9375 12.0933 10.9375 11.8672V1.23047C10.9375 1.00431 10.7535 0.820312 10.5273 0.820312H1.23047Z" fill="#686868"/>
<path d="M2.37891 14C2.15239 14 1.96875 13.8164 1.96875 13.5898V12.6875C1.96875 12.461 2.15239 12.2773 2.37891 12.2773C2.60542 12.2773 2.78906 12.461 2.78906 12.6875V13.5898C2.78906 13.8164 2.60542 14 2.37891 14Z" fill="#686868"/>
<path d="M9.37891 14C9.15239 14 8.96875 13.8164 8.96875 13.5898V12.6875C8.96875 12.461 9.15239 12.2773 9.37891 12.2773C9.60542 12.2773 9.78906 12.461 9.78906 12.6875V13.5898C9.78906 13.8164 9.60542 14 9.37891 14Z" fill="#686868"/>
<path d="M5.87891 13.0977C5.65239 13.0977 5.46875 12.914 5.46875 12.6875V0.410156C5.46875 0.183641 5.65239 0 5.87891 0C6.10542 0 6.28906 0.183641 6.28906 0.410156V12.6875C6.28906 12.914 6.10542 13.0977 5.87891 13.0977Z" fill="#686868"/>
<path d="M11.3477 9.59766H5.87891C5.65239 9.59766 5.46875 9.41402 5.46875 9.1875C5.46875 8.96098 5.65239 8.77734 5.87891 8.77734H11.3477C11.5742 8.77734 11.7578 8.96098 11.7578 9.1875C11.7578 9.41402 11.5742 9.59766 11.3477 9.59766Z" fill="#686868"/>
<path d="M8.94141 11.375H8.28516C8.05864 11.375 7.875 11.1914 7.875 10.9648C7.875 10.7383 8.05864 10.5547 8.28516 10.5547H8.94141C9.16792 10.5547 9.35156 10.7383 9.35156 10.9648C9.35156 11.1914 9.16792 11.375 8.94141 11.375Z" fill="#686868"/>
<path d="M4.12891 6.97266C3.90239 6.97266 3.71875 6.78902 3.71875 6.5625V5.90625C3.71875 5.67973 3.90239 5.49609 4.12891 5.49609C4.35542 5.49609 4.53906 5.67973 4.53906 5.90625V6.5625C4.53906 6.78902 4.35542 6.97266 4.12891 6.97266Z" fill="#686868"/>
<path d="M7.62891 6.97266C7.40239 6.97266 7.21875 6.78902 7.21875 6.5625V5.90625C7.21875 5.67973 7.40239 5.49609 7.62891 5.49609C7.85542 5.49609 8.03906 5.67973 8.03906 5.90625V6.5625C8.03906 6.78902 7.85542 6.97266 7.62891 6.97266Z" fill="#686868"/>
</svg>
