<svg width="20" height="14" viewBox="0 0 20 14" fill="none" xmlns="http://www.w3.org/2000/svg">
<path d="M17.5 0H1.59091C1.16912 0.000479178 0.764745 0.168246 0.466496 0.466496C0.168246 0.764745 0.000479178 1.16912 0 1.59091V12.4091C0.000479178 12.8309 0.168246 13.2353 0.466496 13.5335C0.764745 13.8318 1.16912 13.9995 1.59091 14H17.5C17.9218 13.9995 18.3262 13.8318 18.6244 13.5335C18.9227 13.2353 19.0904 12.8309 19.0909 12.4091V1.59091C19.0904 1.16912 18.9227 0.764745 18.6244 0.466496C18.3262 0.168246 17.9218 0.000479178 17.5 0ZM17.5 13.3636H1.59091C1.33784 13.3633 1.09521 13.2627 0.916263 13.0837C0.737314 12.9048 0.636653 12.6622 0.636364 12.4091V12.09C0.911349 12.2974 1.24649 12.4094 1.59091 12.4091H2.86364V11.7727H1.59091C1.33784 11.7724 1.09521 11.6718 0.91626 11.4928C0.73731 11.3139 0.63665 11.0713 0.636364 10.8182V10.4991C0.911349 10.7065 1.24649 10.8185 1.59091 10.8182H17.5C17.8444 10.8185 18.1796 10.7065 18.4545 10.4991V10.8182C18.4543 11.0713 18.3536 11.3139 18.1746 11.4928C17.9957 11.6718 17.7531 11.7724 17.5 11.7727H12.4091V12.4091H17.5C17.8444 12.4094 18.1796 12.2974 18.4545 12.09V12.4091C18.4543 12.6622 18.3536 12.9048 18.1746 13.0837C17.9957 13.2627 17.7531 13.3633 17.5 13.3636ZM18.4545 9.22727C18.4543 9.48034 18.3536 9.72297 18.1746 9.90192C17.9957 10.0809 17.7531 10.1815 17.5 10.1818H1.59091C1.33784 10.1815 1.09521 10.0809 0.916263 9.90192C0.737314 9.72297 0.636653 9.48034 0.636364 9.22727V1.59091C0.636653 1.33784 0.737314 1.09521 0.916263 0.916263C1.09521 0.737314 1.33784 0.636653 1.59091 0.636364H17.5C17.7531 0.636653 17.9957 0.737314 18.1746 0.916263C18.3536 1.09521 18.4543 1.33784 18.4545 1.59091V9.22727Z" fill="#686868"/>
<path d="M3.5 11.7727H4.13636V12.4091H3.5V11.7727Z" fill="#686868"/>
<path d="M11.1364 11.7727H11.7727V12.4091H11.1364V11.7727Z" fill="#686868"/>
<path d="M3.5 2.22727V1.59091H2.86364V2.22727C2.86354 2.31163 2.82999 2.3925 2.77034 2.45215C2.71069 2.5118 2.62981 2.54536 2.54545 2.54545H1.90909V3.18182H2.54545C2.62981 3.18191 2.71069 3.21547 2.77034 3.27512C2.82999 3.33477 2.86354 3.41564 2.86364 3.5V4.77273C2.86354 4.85708 2.82999 4.93796 2.77034 4.99761C2.71069 5.05726 2.62981 5.09081 2.54545 5.09091H1.90909V5.72727H2.54545C2.62981 5.72737 2.71069 5.76092 2.77034 5.82057C2.82999 5.88022 2.86354 5.9611 2.86364 6.04545V7.31818C2.86354 7.40254 2.82999 7.48341 2.77034 7.54306C2.71069 7.60271 2.62981 7.63627 2.54545 7.63636H1.90909V8.27273H2.54545C2.62981 8.27282 2.71069 8.30638 2.77034 8.36603C2.82999 8.42568 2.86354 8.50655 2.86364 8.59091V9.22727H3.5V8.59091C3.5001 8.50655 3.53365 8.42568 3.5933 8.36603C3.65295 8.30638 3.73382 8.27282 3.81818 8.27273H4.45455V7.63636H3.81818C3.73382 7.63627 3.65295 7.60271 3.5933 7.54306C3.53365 7.48341 3.5001 7.40254 3.5 7.31818V6.04545C3.5001 5.9611 3.53365 5.88022 3.5933 5.82057C3.65295 5.76092 3.73382 5.72737 3.81818 5.72727H4.45455V5.09091H3.81818C3.73382 5.09081 3.65295 5.05726 3.5933 4.99761C3.53365 4.93796 3.5001 4.85708 3.5 4.77273V3.5C3.5001 3.41564 3.53365 3.33477 3.5933 3.27512C3.65295 3.21547 3.73382 3.18191 3.81818 3.18182H4.45455V2.54545H3.81818C3.73382 2.54536 3.65295 2.5118 3.5933 2.45215C3.53365 2.3925 3.5001 2.31163 3.5 2.22727Z" fill="#686868"/>
<path d="M6.68182 2.22727V1.59091H6.04545V2.22727C6.04536 2.31163 6.01181 2.3925 5.95216 2.45215C5.89251 2.5118 5.81163 2.54536 5.72727 2.54545H5.09091V3.18182H5.72727C5.81163 3.18191 5.89251 3.21547 5.95216 3.27512C6.01181 3.33477 6.04536 3.41564 6.04545 3.5V4.77273C6.04536 4.85708 6.01181 4.93796 5.95216 4.99761C5.89251 5.05726 5.81163 5.09081 5.72727 5.09091H5.09091V5.72727H5.72727C5.81163 5.72737 5.89251 5.76092 5.95216 5.82057C6.01181 5.88022 6.04536 5.9611 6.04545 6.04545V7.31818C6.04536 7.40254 6.01181 7.48341 5.95216 7.54306C5.89251 7.60271 5.81163 7.63627 5.72727 7.63636H5.09091V8.27273H5.72727C5.81163 8.27282 5.89251 8.30638 5.95216 8.36603C6.01181 8.42568 6.04536 8.50655 6.04545 8.59091V9.22727H6.68182V8.59091C6.68192 8.50655 6.71547 8.42568 6.77512 8.36603C6.83477 8.30638 6.91564 8.27282 7 8.27273H7.63636V7.63636H7C6.91564 7.63627 6.83477 7.60271 6.77512 7.54306C6.71547 7.48341 6.68192 7.40254 6.68182 7.31818V6.04545C6.68192 5.9611 6.71547 5.88022 6.77512 5.82057C6.83477 5.76092 6.91564 5.72737 7 5.72727H7.63636V5.09091H7C6.91564 5.09081 6.83477 5.05726 6.77512 4.99761C6.71547 4.93796 6.68192 4.85708 6.68182 4.77273V3.5C6.68192 3.41564 6.71547 3.33477 6.77512 3.27512C6.83477 3.21547 6.91564 3.18191 7 3.18182H7.63636V2.54545H7C6.91564 2.54536 6.83477 2.5118 6.77512 2.45215C6.71547 2.3925 6.68192 2.31163 6.68182 2.22727Z" fill="#686868"/>
<path d="M9.86364 2.22727V1.59091H9.22727V2.22727C9.22718 2.31163 9.19362 2.3925 9.13397 2.45215C9.07432 2.5118 8.99345 2.54536 8.90909 2.54545H8.27273V3.18182H8.90909C8.99345 3.18191 9.07432 3.21547 9.13397 3.27512C9.19362 3.33477 9.22718 3.41564 9.22727 3.5V4.77273C9.22718 4.85708 9.19362 4.93796 9.13397 4.99761C9.07432 5.05726 8.99345 5.09081 8.90909 5.09091H8.27273V5.72727H8.90909C8.99345 5.72737 9.07432 5.76092 9.13397 5.82057C9.19362 5.88022 9.22718 5.9611 9.22727 6.04545V7.31818C9.22718 7.40254 9.19362 7.48341 9.13397 7.54306C9.07432 7.60271 8.99345 7.63627 8.90909 7.63636H8.27273V8.27273H8.90909C8.99345 8.27282 9.07432 8.30638 9.13397 8.36603C9.19362 8.42568 9.22718 8.50655 9.22727 8.59091V9.22727H9.86364V8.59091C9.86373 8.50655 9.89729 8.42568 9.95694 8.36603C10.0166 8.30638 10.0975 8.27282 10.1818 8.27273H10.8182V7.63636H10.1818C10.0975 7.63627 10.0166 7.60271 9.95694 7.54306C9.89729 7.48341 9.86373 7.40254 9.86364 7.31818V6.04545C9.86373 5.9611 9.89729 5.88022 9.95694 5.82057C10.0166 5.76092 10.0975 5.72737 10.1818 5.72727H10.8182V5.09091H10.1818C10.0975 5.09081 10.0166 5.05726 9.95694 4.99761C9.89729 4.93796 9.86373 4.85708 9.86364 4.77273V3.5C9.86373 3.41564 9.89729 3.33477 9.95694 3.27512C10.0166 3.21547 10.0975 3.18191 10.1818 3.18182H10.8182V2.54545H10.1818C10.0975 2.54536 10.0166 2.5118 9.95694 2.45215C9.89729 2.3925 9.86373 2.31163 9.86364 2.22727Z" fill="#686868"/>
<path d="M13.0455 2.22727V1.59091H12.4091V2.22727C12.409 2.31163 12.3754 2.3925 12.3158 2.45215C12.2561 2.5118 12.1753 2.54536 12.0909 2.54545H11.4545V3.18182H12.0909C12.1753 3.18191 12.2561 3.21547 12.3158 3.27512C12.3754 3.33477 12.409 3.41564 12.4091 3.5V4.77273C12.409 4.85708 12.3754 4.93796 12.3158 4.99761C12.2561 5.05726 12.1753 5.09081 12.0909 5.09091H11.4545V5.72727H12.0909C12.1753 5.72737 12.2561 5.76092 12.3158 5.82057C12.3754 5.88022 12.409 5.9611 12.4091 6.04545V7.31818C12.409 7.40254 12.3754 7.48341 12.3158 7.54306C12.2561 7.60271 12.1753 7.63627 12.0909 7.63636H11.4545V8.27273H12.0909C12.1753 8.27282 12.2561 8.30638 12.3158 8.36603C12.3754 8.42568 12.409 8.50655 12.4091 8.59091V9.22727H13.0455V8.59091C13.0456 8.50655 13.0791 8.42568 13.1388 8.36603C13.1984 8.30638 13.2793 8.27282 13.3636 8.27273H14V7.63636H13.3636C13.2793 7.63627 13.1984 7.60271 13.1388 7.54306C13.0791 7.48341 13.0456 7.40254 13.0455 7.31818V6.04545C13.0456 5.9611 13.0791 5.88022 13.1388 5.82057C13.1984 5.76092 13.2793 5.72737 13.3636 5.72727H14V5.09091H13.3636C13.2793 5.09081 13.1984 5.05726 13.1388 4.99761C13.0791 4.93796 13.0456 4.85708 13.0455 4.77273V3.5C13.0456 3.41564 13.0791 3.33477 13.1388 3.27512C13.1984 3.21547 13.2793 3.18191 13.3636 3.18182H14V2.54545H13.3636C13.2793 2.54536 13.1984 2.5118 13.1388 2.45215C13.0791 2.3925 13.0456 2.31163 13.0455 2.22727Z" fill="#686868"/>
<path d="M16.2273 2.22727V1.59091H15.5909V2.22727C15.5908 2.31163 15.5573 2.3925 15.4976 2.45215C15.438 2.5118 15.3571 2.54536 15.2727 2.54545H14.6364V3.18182H15.2727C15.3571 3.18191 15.438 3.21547 15.4976 3.27512C15.5573 3.33477 15.5908 3.41564 15.5909 3.5V4.77273C15.5908 4.85708 15.5573 4.93796 15.4976 4.99761C15.438 5.05726 15.3571 5.09081 15.2727 5.09091H14.6364V5.72727H15.2727C15.3571 5.72737 15.438 5.76092 15.4976 5.82057C15.5573 5.88022 15.5908 5.9611 15.5909 6.04545V7.31818C15.5908 7.40254 15.5573 7.48341 15.4976 7.54306C15.438 7.60271 15.3571 7.63627 15.2727 7.63636H14.6364V8.27273H15.2727C15.3571 8.27282 15.438 8.30638 15.4976 8.36603C15.5573 8.42568 15.5908 8.50655 15.5909 8.59091V9.22727H16.2273V8.59091C16.2274 8.50655 16.2609 8.42568 16.3206 8.36603C16.3802 8.30638 16.4611 8.27282 16.5455 8.27273H17.1818V7.63636H16.5455C16.4611 7.63627 16.3802 7.60271 16.3206 7.54306C16.2609 7.48341 16.2274 7.40254 16.2273 7.31818V6.04545C16.2274 5.9611 16.2609 5.88022 16.3206 5.82057C16.3802 5.76092 16.4611 5.72737 16.5455 5.72727H17.1818V5.09091H16.5455C16.4611 5.09081 16.3802 5.05726 16.3206 4.99761C16.2609 4.93796 16.2274 4.85708 16.2273 4.77273V3.5C16.2274 3.41564 16.2609 3.33477 16.3206 3.27512C16.3802 3.21547 16.4611 3.18191 16.5455 3.18182H17.1818V2.54545H16.5455C16.4611 2.54536 16.3802 2.5118 16.3206 2.45215C16.2609 2.3925 16.2274 2.31163 16.2273 2.22727Z" fill="#686868"/>
</svg>
