<svg width="15" height="14" viewBox="0 0 15 14" fill="none" xmlns="http://www.w3.org/2000/svg">
<path fill-rule="evenodd" clip-rule="evenodd" d="M13.1947 5.95794L13.2049 5.96547C13.578 6.23939 14.0012 6.55169 14.0012 7.00033C14.0012 7.44888 13.5783 7.76052 13.2058 8.035L13.2056 8.03516C12.9901 8.19221 12.7211 8.39066 12.6858 8.52214C12.698 8.77478 12.7688 9.02114 12.8927 9.24165L12.8983 9.25442C13.0859 9.68684 13.2783 10.1304 13.0607 10.5047C12.841 10.8828 12.3473 10.9382 11.8701 10.9917C11.6234 10.9933 11.3802 11.0509 11.1591 11.1603C11.0495 11.3816 10.9916 11.625 10.9899 11.8719C10.9363 12.3492 10.8742 12.8465 10.4992 13.0626C10.1243 13.2787 9.67262 13.0839 9.23677 12.894C9.01771 12.7704 8.77324 12.6988 8.52214 12.6846C8.39494 12.7174 8.2021 12.9788 8.04426 13.1927L8.03516 13.205L8.03464 13.2057C7.76021 13.5781 7.44928 14 7.00033 14C6.55132 14 6.24033 13.578 5.96591 13.2056L5.96591 13.2056L5.9655 13.205C5.80782 12.9895 5.61 12.7205 5.47852 12.6852C5.22611 12.6989 4.98012 12.7696 4.75901 12.8921L4.7482 12.8968C4.31516 13.0853 3.87081 13.2787 3.49591 13.0601C3.1179 12.8398 3.06249 12.3467 3.00893 11.8701C3.00784 11.6223 2.94995 11.378 2.8397 11.1561C2.61853 11.046 2.37514 10.9879 2.1281 10.9862C1.65147 10.9357 1.15595 10.8748 0.938043 10.4992C0.720132 10.1236 0.916129 9.67199 1.10605 9.23614C1.22997 9.01746 1.30165 8.77309 1.31546 8.52211C1.28311 8.3945 1.01959 8.20025 0.80584 8.04268L0.805826 8.04267L0.795603 8.03513C0.42244 7.76121 0 7.44953 0 7.0003C0 6.55107 0.42244 6.23939 0.794976 5.96547C1.01046 5.80842 1.27953 5.60997 1.31483 5.47849C1.30142 5.22668 1.22974 4.98143 1.10542 4.76204C0.913076 4.32558 0.720075 3.87387 0.939812 3.49586C1.15955 3.11784 1.65324 3.06243 2.13046 3.00887C2.37642 3.00762 2.61887 2.95061 2.83961 2.84209C2.94924 2.62079 3.0071 2.37745 3.00884 2.13049C3.06243 1.65084 3.12512 1.15413 3.49948 0.937416C3.87384 0.720703 4.3255 0.913048 4.76378 1.10602C4.98317 1.22874 5.22748 1.30031 5.4784 1.31543C5.6056 1.28259 5.79844 1.02124 5.95628 0.80731L5.96538 0.794976L5.96591 0.794268C6.24033 0.421905 6.55127 0 7.00021 0C7.44718 0 7.75737 0.418182 8.03268 0.789324L8.03687 0.794976C8.19455 1.01046 8.39237 1.27953 8.52385 1.31483C8.77501 1.30093 9.01957 1.22929 9.23848 1.10542C9.6743 0.913076 10.1266 0.720103 10.5046 0.940469C10.8826 1.16083 10.938 1.6539 10.9916 2.13052C10.9927 2.37834 11.0506 2.62261 11.1608 2.84455C11.382 2.95463 11.6254 3.01272 11.8724 3.01438C12.349 3.06491 12.8446 3.12577 13.0625 3.50136C13.2804 3.87695 13.0844 4.32861 12.8945 4.76446C12.7705 4.98314 12.6989 5.2275 12.6851 5.47849C12.7174 5.6061 12.9809 5.80037 13.1947 5.95794ZM4.93054 8.40032C4.98801 8.47696 5.07823 8.52207 5.17402 8.52207C5.20675 8.52207 5.23922 8.51674 5.27021 8.50623C5.39444 8.46486 5.47831 8.34864 5.47839 8.2177V5.78284C5.47839 5.61475 5.34211 5.47847 5.17402 5.47847C5.00593 5.47847 4.86965 5.61475 4.86965 5.78284V7.30463L3.59135 5.60023C3.53388 5.52359 3.44366 5.47847 3.34787 5.47847C3.17978 5.47847 3.0435 5.61475 3.0435 5.78284V8.2177C3.0435 8.38579 3.17978 8.52207 3.34787 8.52207C3.51596 8.52207 3.65224 8.38579 3.65224 8.2177V6.69592L4.93054 8.40032ZM7.60897 8.52207H6.39153C6.22344 8.52207 6.08716 8.38579 6.08716 8.2177V7.00026V5.78284C6.08716 5.61475 6.22344 5.47847 6.39153 5.47847H7.60897C7.77706 5.47847 7.91334 5.61475 7.91334 5.78284C7.91334 5.95093 7.77706 6.08721 7.60897 6.08721H6.6959V6.69589H7.60897C7.77706 6.69589 7.91334 6.83217 7.91334 7.00026C7.91334 7.16835 7.77706 7.30463 7.60897 7.30463H6.6959V7.91336H7.60897C7.77706 7.91336 7.91334 8.04964 7.91334 8.21773C7.91334 8.38582 7.77706 8.52207 7.60897 8.52207ZM10.3634 8.31393C10.4048 8.43839 10.5214 8.52228 10.6525 8.52211L10.6647 8.52151C10.7999 8.51637 10.9155 8.42264 10.9484 8.29141L11.5571 5.85655C11.5978 5.69331 11.4984 5.52804 11.3352 5.48736C11.172 5.44667 11.0067 5.54602 10.966 5.70923L10.6112 7.12998L10.333 6.29543C10.3012 6.22541 10.2451 6.16931 10.1751 6.13755C10.0156 6.06522 9.82762 6.1359 9.75529 6.29543L9.47712 7.12998L9.12224 5.70923C9.08155 5.54602 8.91626 5.44667 8.75305 5.48736C8.58983 5.52804 8.49048 5.69334 8.53117 5.85655L9.13988 8.29141C9.17278 8.42264 9.28834 8.51637 9.42353 8.52151C9.56015 8.53172 9.68535 8.44527 9.72424 8.31393L10.0438 7.35397L10.3634 8.31393Z" fill="#FFC107"/>
</svg>
