<svg width="17" height="16" viewBox="0 0 17 16" fill="none" xmlns="http://www.w3.org/2000/svg">
<g id="Icon_Action" opacity="0.9">
<path id="icon-sort-ascending" fill-rule="evenodd" clip-rule="evenodd" d="M2.6001 4C2.6001 3.72386 2.82396 3.5 3.1001 3.5H11.6C11.8762 3.5 12.1 3.72386 12.1 4C12.1 4.27614 11.8762 4.5 11.6 4.5H3.1001C2.82396 4.5 2.6001 4.27614 2.6001 4ZM11.6001 6.5C11.8762 6.5 12.1001 6.72386 12.1001 7V11.793L13.7465 10.1468C13.9418 9.95155 14.2584 9.95157 14.4536 10.1468C14.6489 10.3421 14.6488 10.6587 14.4536 10.854L11.9537 13.3535L11.9536 13.3536C11.8631 13.444 11.7382 13.5 11.6001 13.5L11.5971 13.5C11.5304 13.4996 11.4668 13.4861 11.4087 13.4621C11.3497 13.4377 11.2945 13.4015 11.2465 13.3536L8.74654 10.8536C8.55128 10.6583 8.55128 10.3417 8.74654 10.1464C8.94181 9.95118 9.25839 9.95118 9.45365 10.1464L11.1001 11.7929V7C11.1001 6.72386 11.324 6.5 11.6001 6.5ZM3.1001 7.5C2.82396 7.5 2.6001 7.72386 2.6001 8C2.6001 8.27614 2.82396 8.5 3.1001 8.5H7.60004C7.87618 8.5 8.10004 8.27614 8.10004 8C8.10004 7.72386 7.87618 7.5 7.60004 7.5H3.1001ZM3.1001 11.5C2.82396 11.5 2.6001 11.7239 2.6001 12C2.6001 12.2761 2.82396 12.5 3.1001 12.5H6.6001C6.87624 12.5 7.1001 12.2761 7.1001 12C7.1001 11.7239 6.87624 11.5 6.6001 11.5H3.1001Z" fill="#A7A7A7"/>
</g>
</svg>
